# xmcd
#
# Track frame offsets:
#	150
#	38790
#	57029
#	76700
#	95705
#	115182
#	134955
#	150705
#	167283
#	184428
#	206227
#	228880
#	250714
#	267638
#	285169
#
# Disc length: 4259 seconds
#
# Revision: 2
# Processed by: cddbd v1.5.2PL0 Copyright (c) Steve Scherf et al.
# Submitted via: EasyCDDAExtractor 15.3.0.1
#
DISCID=cd10a10f
DTITLE=Maria Conchita Alonso, Rocio Banquells, Dulce, Karina - GranDiosas En C
DTITLE=oncierto
DYEAR=2015
DGENRE=Latin
TTITLE0=Karina, Dulce, Maria Conchita Alonso, Rocio Banquells - Opening (Dejar
TTITLE0=e, Lobo, Lluvia De Amor, Dentro)
TTITLE1=Karina - A Quien
TTITLE2=Rocio Banquells - Abrazame
TTITLE3=Maria Conchita Alonso - O Ella O Yo
TTITLE4=Dulce - Aun Lo Amo
TTITLE5=Maria Conchita Alonso A Duo Con Karina - Y Es Que Llegaste Tu
TTITLE6=Rocio Banquells A Duo Con Karina - Luna Magica
TTITLE7=Maria Conchita Alonso A Duo Con Dulce - Hazme Sentir
TTITLE8=Karina - El Me Mintio
TTITLE9=Dulce - Porque Me Gusta A Morir
TTITLE10=Maria Conchita Alonso - Acariciame
TTITLE11=Dulce - Dejame Volver Contigo
TTITLE12=Karina - Se Como Duele
TTITLE13=Rocio Banquells - Este Hombre No Se Toca
TTITLE14=Karina, Dulce, Rocio Banquells, Maria Conchita Alonso - Outro (La Noc
TTITLE14=he Es Magica, Tu Muñeca, No Soy Una Muñeca, Noche De Copas)
EXTD=
EXTT0=
EXTT1=
EXTT2=
EXTT3=
EXTT4=
EXTT5=
EXTT6=
EXTT7=
EXTT8=
EXTT9=
EXTT10=
EXTT11=
EXTT12=
EXTT13=
EXTT14=
PLAYORDER=
